<?xml version="1.0" standalone="no"?>
<!DOCTYPE svg PUBLIC "-//W3C//DTD SVG 20010904//EN"
 "http://www.w3.org/TR/2001/REC-SVG-20010904/DTD/svg10.dtd">
<svg version="1.0" xmlns="http://www.w3.org/2000/svg"
 width="700.000000pt" height="700.000000pt" viewBox="0 0 700.000000 700.000000"
 preserveAspectRatio="xMidYMid meet">
<metadata>
Created by potrace 1.14, written by Peter Selinger 2001-2017
</metadata>
<g transform="translate(0.000000,700.000000) scale(0.100000,-0.100000)"
fill="#000000" stroke="none">
<path d="M3153 6794 c-751 -82 -1429 -402 -1975 -934 l-133 -130 25 -20 c14
-11 50 -32 80 -48 50 -24 65 -27 160 -27 95 0 110 3 160 28 30 15 98 64 150
108 303 254 684 456 1063 564 297 85 482 110 817 109 294 0 436 -16 660 -73
678 -173 1311 -613 1734 -1205 390 -547 574 -1129 553 -1756 -22 -634 -236
-1226 -628 -1730 -88 -114 -291 -325 -409 -425 -1007 -856 -2466 -935 -3560
-194 -177 120 -271 199 -440 368 -288 288 -495 602 -645 976 -316 785 -279
1659 101 2419 35 70 71 154 80 184 23 79 14 175 -24 255 -32 67 -95 147 -117
147 -7 0 -44 -48 -82 -107 -273 -421 -436 -865 -509 -1383 -23 -158 -26 -639
-6 -800 95 -758 423 -1432 951 -1960 560 -559 1268 -888 2064 -961 162 -15
561 -6 717 16 655 91 1244 358 1736 789 651 568 1051 1364 1125 2235 14 173 7
515 -16 681 -122 908 -591 1706 -1319 2245 -479 354 -1029 566 -1633 630 -169
18 -513 18 -680 -1z"/>
<path d="M3315 6053 c-231 -16 -578 -96 -768 -177 l-38 -17 51 -57 c125 -139
249 -356 315 -555 48 -143 48 -140 -22 -130 -32 4 -132 8 -223 7 -186 0 -284
-18 -439 -81 -405 -162 -694 -535 -752 -970 -17 -126 -6 -325 23 -440 13 -51
22 -93 20 -93 -2 0 -39 9 -83 20 -116 30 -211 66 -333 127 -59 30 -110 53
-112 51 -12 -12 -15 -302 -5 -428 51 -613 295 -1155 716 -1589 733 -755 1840
-985 2813 -585 543 224 1009 649 1286 1174 449 852 378 1892 -182 2675 -242
337 -569 617 -936 802 -402 202 -877 297 -1331 266z m495 -578 c794 -131 1427
-707 1625 -1480 46 -181 59 -292 59 -495 0 -203 -13 -314 -59 -495 -87 -342
-252 -637 -500 -894 -300 -312 -682 -510 -1130 -588 -150 -25 -480 -23 -635 5
-651 119 -1183 517 -1465 1097 -56 116 -125 293 -125 324 0 8 34 9 118 5 206
-11 459 23 654 87 115 37 309 132 405 196 437 294 707 787 753 1377 19 240
-16 537 -90 770 -17 51 -30 99 -30 106 0 17 286 7 420 -15z"/>
</g>
</svg>
