<svg xmlns="http://www.w3.org/2000/svg" viewBox="0 0 300 300" role="img"><defs><style>.cls-2{fill:#b50202}</style></defs><path d="M144.71 90.44a52.2 52.2 0 0 0-69.66 77.18 5.31 5.31 0 0 1 .71-.08C96.08 166.51 132 128 145 90" style="fill:#212121"/><path class="cls-2" d="M150 64.33A85.67 85.67 0 1 1 67.5 173.1c2.85.28 5.71.43 8.56.43 17.55 0 33.56-5.28 46.29-15.25 16.15-12.65 26.4-32.8 28.12-55.29A90.86 90.86 0 0 0 145 64.48q2.5-.15 5-.15m0-24a109.28 109.28 0 0 0-42.45 8.53c27.55 29.34 23.5 72.12 0 90.53-8.59 6.73-19.71 10.14-31.49 10.14a68.41 68.41 0 0 1-35.21-10.14c-.33 3.49-.52 7-.52 10.61A109.67 109.67 0 1 0 150 40.33Z"/><path class="cls-2" d="M152 9A140.66 140.66 0 0 0 46.35 54.44a15.48 15.48 0 0 0 20-.47 126.92 126.92 0 0 1 93.37-31c60.5 4.51 114.43 59.77 117.56 120.36 4 77.17-61.1 140.52-138.81 133.65-61.73-5.51-111.1-55.77-115.57-117.57A126.84 126.84 0 0 1 38.15 89a15.68 15.68 0 0 0-3.69-19.77A140.28 140.28 0 0 0 9 149.69c-.16 75.8 60.76 138.89 136.52 141.24a141 141 0 0 0 145.41-145.57C288.53 70.56 226.86 10.07 152 9Z"/><path class="cls-2" d="M150.07 292c-1.52 0-3 0-4.58-.07A142 142 0 0 1 33.64 68.65l.62-.88.83.68a16.73 16.73 0 0 1 3.94 21 126.4 126.4 0 1 0 237.24 53.86C273.16 83.09 219.75 28.4 159.63 23.92A125.64 125.64 0 0 0 67 54.73a16.47 16.47 0 0 1-21.28.48l-.82-.67.72-.78A142.35 142.35 0 0 1 152 8a142 142 0 0 1 98.42 242.34A140.61 140.61 0 0 1 150.07 292ZM34.64 70.72a140 140 0 0 0 214.41 178.22A140 140 0 1 0 47.84 54.31a14.51 14.51 0 0 0 17.85-1.09 127.63 127.63 0 0 1 94.09-31.3C220.85 26.48 275.11 82 278.27 143.23a128.45 128.45 0 1 1-241-54.71 14.75 14.75 0 0 0-2.63-17.8Z"/></svg>
