<svg xmlns="http://www.w3.org/2000/svg" viewBox="0 0 500 500" role="img"><defs><style>.cls-1{fill:#b50202}.cls-2{fill:#212121}</style></defs><g id="Layer_1" data-name="Layer 1"><g id="Layer_2" data-name="Layer 2"><path class="cls-1" d="M115.94 269.18a12.09 12.09 0 0 1-1.08 5.08 11.93 11.93 0 0 1-3.11 4.13 15.22 15.22 0 0 1-4.93 2.78 20.07 20.07 0 0 1-6.6 1 31.29 31.29 0 0 1-6.78-.74 27.66 27.66 0 0 1-6.28-2.15l2-7.71a29.31 29.31 0 0 0 4.87 1.82 21.49 21.49 0 0 0 5.85.77 8.45 8.45 0 0 0 4.26-1 3.3 3.3 0 0 0 1.66-3.11 3.67 3.67 0 0 0-1.45-2.8 17.94 17.94 0 0 0-5.27-2.68q-6-2.28-8.81-5.21a10.44 10.44 0 0 1-2.77-7.49c0-4 1.3-7 3.91-9.12s6.21-3.14 10.82-3.14a28.22 28.22 0 0 1 6.71.77 21.51 21.51 0 0 1 5.43 2l-1.7 7.62a25.16 25.16 0 0 0-4.71-1.7 21.48 21.48 0 0 0-5.27-.64 7.47 7.47 0 0 0-3.67.77 2.76 2.76 0 0 0-1.39 2.62 4.09 4.09 0 0 0 .25 1.48 3 3 0 0 0 .89 1.17 8.5 8.5 0 0 0 1.82 1.11c.78.37 1.77.8 3 1.29q2.6 1 4.87 2.22a17.79 17.79 0 0 1 3.94 2.71 11.6 11.6 0 0 1 2.62 3.52 10.41 10.41 0 0 1 .92 4.63ZM117.66 242.43a5.49 5.49 0 0 1 1.55-4 5.81 5.81 0 0 1 8 0 5.82 5.82 0 0 1 0 7.89 5.79 5.79 0 0 1-8 0 5.45 5.45 0 0 1-1.55-3.89Zm.62 39v-30.2h9.86v30.2ZM165.49 258.39a5.4 5.4 0 0 0-2.83.74 8.55 8.55 0 0 0-2.1 1.73 14.28 14.28 0 0 1 .34 2.4c.06.91.09 1.77.09 2.59v15.59h-9.86v-15.77a12.17 12.17 0 0 0-.95-5.52 3.5 3.5 0 0 0-3.36-1.76 5.16 5.16 0 0 0-2.68.68 5.73 5.73 0 0 0-1.82 1.66v20.71h-9.86v-30.2H142v3.95a8.15 8.15 0 0 1 3.73-3.52 11.42 11.42 0 0 1 4.71-1 9.17 9.17 0 0 1 4.9 1.2 12 12 0 0 1 3.67 3.91c2.14-3.41 5.48-5.11 10-5.11a9.31 9.31 0 0 1 5 1.26 10 10 0 0 1 3.3 3.36 15.16 15.16 0 0 1 1.81 4.84 29 29 0 0 1 .56 5.76v15.59h-9.86v-15.81a12 12 0 0 0-1-5.52 3.49 3.49 0 0 0-3.33-1.76ZM183.55 251.24H193v3.58q3-4.2 9.06-4.19a10.71 10.71 0 0 1 4.75 1.08 11.15 11.15 0 0 1 3.85 3.08 14.91 14.91 0 0 1 2.56 4.83 20.67 20.67 0 0 1 .92 6.35 17.93 17.93 0 0 1-1.26 7 14.73 14.73 0 0 1-3.39 5 13.71 13.71 0 0 1-5 3.05 17.73 17.73 0 0 1-6 1 16 16 0 0 1-2.84-.22 16.54 16.54 0 0 1-2.22-.52v12.82h-9.86Zm14.92 7a7.36 7.36 0 0 0-2.9.52 6 6 0 0 0-2.16 1.57v14a7.24 7.24 0 0 0 1.54.37 13.06 13.06 0 0 0 2 .13q3.87 0 5.6-2.38a10.6 10.6 0 0 0 1.73-6.37 10.4 10.4 0 0 0-1.39-5.58 4.78 4.78 0 0 0-4.42-2.29ZM225.89 272.2a3 3 0 0 0 .5 1.82 2.29 2.29 0 0 0 1.91.64 14.84 14.84 0 0 0 2.09-.18l.31 6.78a19.1 19.1 0 0 1-2.8.58 22.89 22.89 0 0 1-3.24.22 10.24 10.24 0 0 1-4.13-.74 6.91 6.91 0 0 1-2.65-2 7.69 7.69 0 0 1-1.42-2.81 12.39 12.39 0 0 1-.43-3.23v-35.35h9.86ZM245.31 250.63q5.91 0 9.37 3.48t3.45 9.64a24.46 24.46 0 0 1-.56 5h-17.5a6.3 6.3 0 0 0 1.88 4.46c1.17 1.14 3 1.7 5.39 1.7a28.49 28.49 0 0 0 4.66-.4 17.46 17.46 0 0 0 4.22-1.2l1.23 6.35a21.76 21.76 0 0 1-5.27 1.78 29.47 29.47 0 0 1-6.07.62 19.7 19.7 0 0 1-7-1.14 14.17 14.17 0 0 1-5-3.17 13.31 13.31 0 0 1-3.08-4.87 18 18 0 0 1-1-6.29 19.34 19.34 0 0 1 1.08-6.66 14.1 14.1 0 0 1 3.08-5 13.49 13.49 0 0 1 4.84-3.17 17.3 17.3 0 0 1 6.28-1.13Zm-.31 6.28a4.48 4.48 0 0 0-3.61 1.51 6.32 6.32 0 0 0-1.26 4.16h8.75a4.36 4.36 0 0 0 .13-1 5.13 5.13 0 0 0-1-3.3 3.58 3.58 0 0 0-3.01-1.37Z"/><path class="cls-2" d="M289.53 240.4v8h-11v33h-10.1v-33h-11v-8ZM290.39 242.43a5.48 5.48 0 0 1 1.54-4 5.81 5.81 0 0 1 8 0 5.82 5.82 0 0 1 0 7.89 5.79 5.79 0 0 1-8 0 5.44 5.44 0 0 1-1.54-3.89Zm.61 39v-30.2h9.87v30.2ZM338.22 258.39a5.44 5.44 0 0 0-2.84.74 8.5 8.5 0 0 0-2.09 1.73 15.46 15.46 0 0 1 .33 2.4c.07.91.1 1.77.1 2.59v15.59h-9.86v-15.77a12 12 0 0 0-1-5.52 3.5 3.5 0 0 0-3.36-1.76 5.16 5.16 0 0 0-2.68.68 5.73 5.73 0 0 0-1.82 1.66v20.71h-9.86v-30.2h9.49v3.95a8.2 8.2 0 0 1 3.73-3.52 11.43 11.43 0 0 1 4.72-1 9.19 9.19 0 0 1 4.9 1.2 12.12 12.12 0 0 1 3.66 3.91q3.21-5.12 10.05-5.11a9.29 9.29 0 0 1 5 1.26 9.83 9.83 0 0 1 3.3 3.36 15.17 15.17 0 0 1 1.82 4.84 29 29 0 0 1 .55 5.76v15.59h-9.86v-15.81a12.17 12.17 0 0 0-.95-5.52 3.5 3.5 0 0 0-3.33-1.76ZM369.65 250.63q5.91 0 9.37 3.48t3.45 9.64a24.42 24.42 0 0 1-.55 5h-17.51a6.3 6.3 0 0 0 1.88 4.46c1.17 1.14 3 1.7 5.39 1.7a28.49 28.49 0 0 0 4.66-.4 17.46 17.46 0 0 0 4.22-1.2l1.23 6.35a21.76 21.76 0 0 1-5.27 1.78 29.4 29.4 0 0 1-6.07.62 19.61 19.61 0 0 1-7-1.14 14.12 14.12 0 0 1-5.06-3.17 13.45 13.45 0 0 1-3.08-4.87 18 18 0 0 1-1.05-6.29 19.34 19.34 0 0 1 1.08-6.66 14.1 14.1 0 0 1 3.08-5 13.49 13.49 0 0 1 4.84-3.17 17.3 17.3 0 0 1 6.39-1.13Zm-.31 6.28a4.45 4.45 0 0 0-3.6 1.51 6.27 6.27 0 0 0-1.27 4.16h8.75a3.9 3.9 0 0 0 .13-1 5.13 5.13 0 0 0-1.05-3.3 3.56 3.56 0 0 0-2.96-1.37ZM404.29 259.75h-1.17c-3.91 0-6.66 1-8.26 3v18.73H385v-30.2h9.55v5.06a8.31 8.31 0 0 1 2.65-3.89 7.33 7.33 0 0 1 4.68-1.41 9.74 9.74 0 0 1 1.45.09 8 8 0 0 1 1.2.28Z"/></g></g><g id="Layer_5" data-name="Layer 5"><path class="cls-2" d="M175.15 176.62a18.35 18.35 0 0 0-24.48 27.12h.25c7.14-.36 19.77-13.89 24.34-27.25"/><path class="cls-1" d="M177.4 169a28.54 28.54 0 1 1-27.18 38.36h.78a27.61 27.61 0 0 0 17.23-5.69 28.72 28.72 0 0 0 10.48-20.54A33.41 33.41 0 0 0 177.4 169m-.4-10a38.4 38.4 0 0 0-14.92 3c9.69 10.31 8.26 25.34 0 31.81a17.83 17.83 0 0 1-11.08 3.57 24.08 24.08 0 0 1-12.37-3.56c-.12 1.23-.18 2.47-.18 3.73A38.54 38.54 0 1 0 177 159Z"/><path class="cls-1" d="M177.73 148a49.39 49.39 0 0 0-37.14 16 5.45 5.45 0 0 0 7-.17 44.61 44.61 0 0 1 32.8-10.91c21.27 1.59 40.22 21 41.32 42.3a44.79 44.79 0 1 1-84-19.08 5.52 5.52 0 0 0-1.3-7A49.54 49.54 0 1 0 177.73 148Z"/><path class="cls-1" d="M177 248.1h-1.63a50.9 50.9 0 0 1-48.95-50.63 50.28 50.28 0 0 1 9.13-28.85l.62-.88.83.68a6.53 6.53 0 0 1 1.55 8.2 43.59 43.59 0 0 0-5.24 24.19 43.79 43.79 0 0 0 87.39-5.54c-1.08-20.86-19.57-39.8-40.39-41.35a43.5 43.5 0 0 0-32.08 10.67 6.43 6.43 0 0 1-8.31.18l-.83-.67.73-.78A50.72 50.72 0 0 1 177.74 147a50.55 50.55 0 0 1-.7 101.1Zm-40.5-77.36a48.32 48.32 0 0 0-8.08 26.7 48.88 48.88 0 0 0 47 48.63 48.55 48.55 0 1 0 2.29-97.07 48.6 48.6 0 0 0-35.56 14.77 4.47 4.47 0 0 0 4.81-.72 45.49 45.49 0 0 1 33.54-11.16c21.77 1.63 41.11 21.43 42.23 43.25a45.78 45.78 0 1 1-85.9-19.51 4.55 4.55 0 0 0-.29-4.89Z"/></g></svg>
